<?xml version="1.0" encoding="UTF-8" standalone="no"?>
<!-- Created with Inkscape (http://www.inkscape.org/) -->

<svg
   xmlns:dc="http://purl.org/dc/elements/1.1/"
   xmlns:cc="http://creativecommons.org/ns#"
   xmlns:rdf="http://www.w3.org/1999/02/22-rdf-syntax-ns#"
   xmlns:svg="http://www.w3.org/2000/svg"
   xmlns="http://www.w3.org/2000/svg"
   xmlns:sodipodi="http://sodipodi.sourceforge.net/DTD/sodipodi-0.dtd"
   xmlns:inkscape="http://www.inkscape.org/namespaces/inkscape"
   width="4000"
   height="3000"
   viewBox="0 0 1058.3333 793.75002"
   version="1.1"
   id="svg8"
   inkscape:version="0.92.3 (2405546, 2018-03-11)"
   sodipodi:docname="stage-1.svg">
  <defs
     id="defs2" />
  <sodipodi:namedview
     id="base"
     pagecolor="#464646"
     bordercolor="#666666"
     borderopacity="1.0"
     inkscape:pageopacity="0"
     inkscape:pageshadow="2"
     inkscape:zoom="0.044979168"
     inkscape:cx="-1757.2949"
     inkscape:cy="333.48835"
     inkscape:document-units="mm"
     inkscape:current-layer="layer3"
     showgrid="false"
     units="px"
     inkscape:pagecheckerboard="false"
     showguides="false"
     inkscape:window-width="1366"
     inkscape:window-height="711"
     inkscape:window-x="0"
     inkscape:window-y="0"
     inkscape:window-maximized="1" />
  <metadata
     id="metadata5">
    <rdf:RDF>
      <cc:Work
         rdf:about="">
        <dc:format>image/svg+xml</dc:format>
        <dc:type
           rdf:resource="http://purl.org/dc/dcmitype/StillImage" />
        <dc:title />
      </cc:Work>
    </rdf:RDF>
  </metadata>
  <g
     inkscape:groupmode="layer"
     id="layer3"
     inkscape:label="Layer 2">
    <rect
       style="opacity:1;fill:#464646;fill-opacity:1;stroke:#000000;stroke-width:9.96830273;stroke-miterlimit:4;stroke-dasharray:none;stroke-dashoffset:0;stroke-opacity:0"
       id="rect3124"
       width="2336.6003"
       height="1807.311"
       x="-947.95697"
       y="-642.07483" />
  </g>
  <g
     inkscape:label="Layer 1"
     inkscape:groupmode="layer"
     id="layer1"
     transform="translate(0,496.75002)">
    <rect
       style="color:#000000;display:inline;overflow:visible;visibility:visible;opacity:1;fill:#c00000;fill-opacity:1;fill-rule:nonzero;stroke:none;stroke-width:0;marker:none;enable-background:accumulate"
       id="rect3050"
       width="37.247959"
       height="11.915053"
       x="194.82335"
       y="216.03748" />
    <path
       style="fill:#dfdfdf;fill-opacity:1;stroke:none;stroke-width:0.20266324px;stroke-linecap:butt;stroke-linejoin:miter;stroke-opacity:1"
       d="m 194.716,235.78857 0.32203,47.98224 18.785,-47.98224 z"
       id="path3052"
       inkscape:connector-curvature="0" />
    <path
       style="color:#000000;display:inline;overflow:visible;visibility:visible;opacity:1;fill:#ffc000;fill-opacity:1;fill-rule:nonzero;stroke:none;stroke-width:0;marker:none;enable-background:accumulate"
       d="m 195.14846,277.56246 c -0.0107,-2.95193 -0.0783,-13.50641 -0.1503,-23.45441 -0.072,-9.94799 -0.12401,-18.0996 -0.11563,-18.11469 0.008,-0.0151 4.21429,-0.0151 9.34647,0 l 9.33123,0.0274 -9.03838,23.07871 c -4.97111,12.69328 -9.10939,23.24776 -9.19616,23.4544 -0.14205,0.33824 -0.15972,-0.15952 -0.17723,-4.99144 z"
       id="path3068"
       inkscape:connector-curvature="0" />
    <path
       style="color:#000000;display:inline;overflow:visible;visibility:visible;fill:#0070c0;fill-opacity:1;fill-rule:nonzero;stroke:none;stroke-width:0;marker:none;enable-background:accumulate"
       d="m 188.72746,238.26615 c -5.47884,0.0745 -9.89884,4.52896 -9.89884,10.0255 0,5.54303 4.49513,10.03816 10.03817,10.03816 0.006,0 0.0126,10e-6 0.019,0 z"
       id="path3842"
       inkscape:connector-curvature="0" />
    <path
       style="color:#000000;display:inline;overflow:visible;visibility:visible;fill:#ffffff;fill-opacity:1;fill-rule:nonzero;stroke:none;stroke-width:0;marker:none;enable-background:accumulate"
       d="m 186.59848,282.79713 c -0.95209,-0.13833 -3.2628,-0.68986 -3.37959,-0.80664 -0.0372,-0.0372 0.34937,-1.31865 0.85901,-2.84769 0.50964,-1.52904 0.92613,-2.84834 0.92553,-2.93177 -6.1e-4,-0.0834 -0.79582,-0.30661 -1.76713,-0.49594 -4.92197,-0.95941 -8.99604,-3.17933 -12.69775,-6.91888 -0.90111,-0.91033 -1.6591,-1.62961 -1.68441,-1.59838 -0.0253,0.0313 -0.71393,1.01315 -1.53025,2.18205 -0.81634,1.1689 -1.64637,2.23747 -1.69159,2.20118 -2.14128,-1.71826 -2.63954,-2.279 -3.76678,-4.19004 -1.21658,-2.06253 -1.3538,-2.91735 -2.21254,-5.55875 -0.0134,-0.0414 1.16652,-0.40968 2.59229,-0.81384 2.36711,-0.67101 2.58576,-0.76174 2.51722,-1.04448 -0.0413,-0.1703 -0.34876,-1.09523 -0.68326,-2.0554 -0.8702,-2.49789 -1.2476,-4.52093 -1.34743,-7.22292 -0.0933,-2.52452 0.0927,-4.79673 0.5768,-7.04681 0.17064,-0.79319 0.34642,-1.64774 0.39063,-1.89901 l 0.0804,-0.45686 -2.48078,-0.35532 c -1.36444,-0.19543 -2.50738,-0.38078 -2.5399,-0.41188 -0.1227,-0.11743 1.04479,-4.00472 1.89696,-5.75756 0.74371,-1.52976 2.34142,-3.77732 3.40209,-4.78299 0.28639,-0.27153 0.26304,-0.2938 1.82167,1.46013 0.87522,0.9849 1.70442,1.93001 1.84267,2.10026 0.2458,0.30271 0.29768,0.26427 2.35298,-1.74326 1.15591,-1.12904 2.85309,-2.6132 3.77151,-3.29812 2.71991,-2.02841 6.05257,-3.53923 8.84268,-4.00872 0.66339,-0.11163 1.10059,-0.25874 1.10059,-0.37034 0,-0.10183 -0.51734,-1.63192 -1.14965,-3.40022 -0.6323,-1.7683 -1.12757,-3.23568 -1.10059,-3.26085 0.0892,-0.0832 2.15954,-0.65589 3.00927,-0.83236 0.45921,-0.0954 1.53513,-0.21396 2.39094,-0.26354 l 1.55601,-0.0901 v 6.0192 6.0192 h -0.66324 c -1.03821,0 -3.22175,0.41924 -4.80177,0.92194 -7.19396,2.28884 -12.39362,8.23868 -14.15121,16.19285 -0.44354,2.00728 -0.48219,6.30166 -0.0742,8.23675 1.20051,5.69308 4.28336,10.10989 9.25354,13.25763 2.42539,1.53605 5.92301,2.89726 9.08879,3.53717 l 1.39526,0.28203 -0.0992,4.40302 c -0.0546,2.42167 -0.0994,5.17153 -0.0995,6.11084 l -2.1e-4,1.70781 -0.41746,-0.0185 c -0.22961,-0.0102 -0.82734,-0.0781 -1.3283,-0.15085 z"
       id="path3853"
       inkscape:connector-curvature="0"
       sodipodi:nodetypes="ccscsscsssssssssscsssssssssssssscccsssssscsccccc" />
    <g
       transform="matrix(0.17015031,0,0,0.1701501,483.92183,110.78772)"
       id="g6188">
      <rect
         style="fill:#dfdfdf;fill-opacity:1;fill-rule:evenodd;stroke:none"
         id="rect4099"
         width="178.01756"
         height="178.01756"
         x="-645.03796"
         y="521.03937"
         rx="0"
         ry="0"
         transform="rotate(-66.405359)" />
      <rect
         style="fill:#dfdfdf;fill-opacity:1"
         id="rect4101"
         width="93.71196"
         height="93.71196"
         x="662.87335"
         y="-501.11325"
         transform="rotate(113.83799)" />
      <rect
         style="fill:#dfdfdf;fill-opacity:1"
         id="rect4103"
         width="126.62231"
         height="130.64206"
         x="-638.28058"
         y="372.5838"
         transform="rotate(-66.170589)" />
      <rect
         style="fill:#dfdfdf;fill-opacity:1"
         id="rect4105"
         width="150.77232"
         height="150.77232"
         x="521.63708"
         y="664.41193"
         transform="rotate(23.688614)" />
    </g>
    <g
       transform="matrix(0.09522957,0,0,0.09063684,818.49982,200.00247)"
       id="g6898">
      <circle
         style="color:#000000;display:inline;overflow:visible;visibility:visible;opacity:1;fill:#dfdfdf;fill-opacity:1;fill-rule:nonzero;stroke:#ffffff;stroke-width:0.96379739;stroke-linejoin:miter;stroke-miterlimit:4;stroke-dasharray:none;stroke-dashoffset:0;stroke-opacity:1;marker:none;enable-background:accumulate"
         id="circle8306"
         cx="524"
         cy="550.36218"
         r="54.066284" />
      <path
         inkscape:connector-curvature="0"
         id="circle8373"
         d="M 513.8418,176.91489 A 373.65318,373.65318 0 0 0 140.18945,550.56724 373.65318,373.65318 0 0 0 513.8418,924.21958 V 741.72544 A 191.87151,191.87151 0 0 1 332.12891,550.36216 191.87151,191.87151 0 0 1 513.8418,358.85044 Z"
         style="color:#000000;display:inline;overflow:visible;visibility:visible;opacity:1;fill:#dfdfdf;fill-opacity:1;fill-rule:nonzero;stroke:none;stroke-width:4.75142097;stroke-linejoin:miter;stroke-miterlimit:4;stroke-dasharray:none;stroke-dashoffset:0;stroke-opacity:1;marker:none;enable-background:accumulate" />
      <path
         inkscape:connector-curvature="0"
         id="path8382"
         d="M 514.76758,394.05161 A 156.0855,156.0855 0 0 0 358.68359,550.13755 156.0855,156.0855 0 0 0 514.76758,706.22154 v -74.27149 a 82.154182,82.154182 0 0 1 -72.92188,-81.58789 82.154182,82.154182 0 0 1 72.92188,-81.5332 z"
         style="color:#000000;display:inline;overflow:visible;visibility:visible;opacity:1;fill:#dfdfdf;fill-opacity:1;fill-rule:nonzero;stroke:none;stroke-width:4.75142097;stroke-linejoin:miter;stroke-miterlimit:4;stroke-dasharray:none;stroke-dashoffset:0;stroke-opacity:1;marker:none;enable-background:accumulate" />
      <path
         inkscape:connector-curvature="0"
         id="path8387"
         d="M 531.56836,230.53013 V 391.40318 A 159.33853,159.33853 0 0 1 683.33789,550.36216 159.33853,159.33853 0 0 1 531.56836,709.43247 V 870.29966 A 319.88508,319.88508 0 0 0 851.45312,550.41489 319.88508,319.88508 0 0 0 531.56836,230.53013 Z"
         style="color:#000000;display:inline;overflow:visible;visibility:visible;opacity:1;fill:#dfdfdf;fill-opacity:1;fill-rule:nonzero;stroke:none;stroke-width:4.75142097;stroke-linejoin:miter;stroke-miterlimit:4;stroke-dasharray:none;stroke-dashoffset:0;stroke-opacity:1;marker:none;enable-background:accumulate" />
    </g>
    <path
       style="fill:#dfdfdf;fill-opacity:1;stroke:#c00000;stroke-width:3.90858006;stroke-linecap:butt;stroke-linejoin:miter;stroke-miterlimit:4;stroke-dasharray:none;stroke-opacity:1"
       d="M 31.75,247.94986 H 137.58333"
       id="path6929"
       inkscape:connector-curvature="0" />
    <path
       style="fill:#dfdfdf;fill-opacity:1;stroke:#dfdfdf;stroke-width:3.90858006;stroke-linecap:butt;stroke-linejoin:miter;stroke-miterlimit:4;stroke-dasharray:none;stroke-opacity:1"
       d="m 920.75,247.94986 h 105.8333"
       id="path6929-7"
       inkscape:connector-curvature="0" />
    <path
       style="fill:#dfdfdf;fill-opacity:1;stroke:#dfdfdf;stroke-width:5.17056465;stroke-linecap:butt;stroke-linejoin:miter;stroke-miterlimit:4;stroke-dasharray:none;stroke-opacity:1"
       d="M 264.58333,247.94986 H 449.79166"
       id="path6929-5"
       inkscape:connector-curvature="0" />
    <path
       style="fill:#dfdfdf;fill-opacity:1;stroke:#dfdfdf;stroke-width:5.17056465;stroke-linecap:butt;stroke-linejoin:miter;stroke-miterlimit:4;stroke-dasharray:none;stroke-opacity:1"
       d="M 595.3125,247.31463 H 780.52083"
       id="path6929-5-3"
       inkscape:connector-curvature="0" />
    <text
       xml:space="preserve"
       style="font-style:normal;font-weight:normal;font-size:25.39999962px;line-height:1.25;font-family:sans-serif;letter-spacing:0px;word-spacing:0px;fill:#000000;fill-opacity:1;stroke:none;stroke-width:0.26458332"
       x="857.40063"
       y="-455.63098"
       id="text6978"><tspan
         sodipodi:role="line"
         id="tspan6976"
         x="857.40063"
         y="-455.63098"
         style="font-size:25.39999962px;fill:#dfdfdf;fill-opacity:1;stroke-width:0.26458332">AOSC@SOSCON</tspan></text>
  </g>
</svg>
