<?xml version="1.0" encoding="UTF-8" standalone="no"?>
<!-- Created with Inkscape (http://www.inkscape.org/) -->

<svg
   xmlns:dc="http://purl.org/dc/elements/1.1/"
   xmlns:cc="http://creativecommons.org/ns#"
   xmlns:rdf="http://www.w3.org/1999/02/22-rdf-syntax-ns#"
   xmlns:svg="http://www.w3.org/2000/svg"
   xmlns="http://www.w3.org/2000/svg"
   xmlns:sodipodi="http://sodipodi.sourceforge.net/DTD/sodipodi-0.dtd"
   xmlns:inkscape="http://www.inkscape.org/namespaces/inkscape"
   width="4000"
   height="3000"
   viewBox="0 0 1058.3333 793.75002"
   version="1.1"
   id="svg8"
   inkscape:version="0.92.3 (2405546, 2018-03-11)"
   sodipodi:docname="stage-1.svg">
  <defs
     id="defs2" />
  <sodipodi:namedview
     id="base"
     pagecolor="#464646"
     bordercolor="#666666"
     borderopacity="1.0"
     inkscape:pageopacity="0"
     inkscape:pageshadow="2"
     inkscape:zoom="0.12374369"
     inkscape:cx="1836.4051"
     inkscape:cy="1550.3567"
     inkscape:document-units="mm"
     inkscape:current-layer="layer1"
     showgrid="false"
     units="px"
     inkscape:pagecheckerboard="false"
     showguides="false"
     inkscape:window-width="1366"
     inkscape:window-height="711"
     inkscape:window-x="0"
     inkscape:window-y="0"
     inkscape:window-maximized="1" />
  <metadata
     id="metadata5">
    <rdf:RDF>
      <cc:Work
         rdf:about="">
        <dc:format>image/svg+xml</dc:format>
        <dc:type
           rdf:resource="http://purl.org/dc/dcmitype/StillImage" />
        <dc:title></dc:title>
      </cc:Work>
    </rdf:RDF>
  </metadata>
  <g
     inkscape:label="Layer 1"
     inkscape:groupmode="layer"
     id="layer1"
     transform="translate(0,496.75002)">
    <g
       id="g5323"
       transform="matrix(0.76597136,0,0,0.76597136,26.720714,341.77512)"
       style="fill:#dfdfdf;fill-opacity:1">
      <rect
         y="-164.1545"
         x="219.46335"
         height="15.555482"
         width="48.628399"
         id="rect3050"
         style="color:#000000;display:inline;overflow:visible;visibility:visible;opacity:1;fill:#dfdfdf;fill-opacity:1;fill-rule:nonzero;stroke:none;stroke-width:0;marker:none;enable-background:accumulate" />
      <path
         inkscape:connector-curvature="0"
         id="path3052"
         d="m 219.3232,-138.36882 0.42042,62.642348 24.52441,-62.642348 z"
         style="fill:#dfdfdf;fill-opacity:1;stroke:none;stroke-width:0.26458332px;stroke-linecap:butt;stroke-linejoin:miter;stroke-opacity:1" />
      <path
         inkscape:connector-curvature="0"
         id="path3068"
         d="m 219.88779,-83.831672 c -0.014,-3.85384 -0.10226,-17.633048 -0.19622,-30.620478 -0.094,-12.98742 -0.1619,-23.62961 -0.15096,-23.64931 0.0109,-0.0197 5.50189,-0.0197 12.20211,0 l 12.18222,0.0358 -11.7999,30.12999 c -6.48994,16.571488 -11.89259,30.350698 -12.00588,30.620468 -0.18544,0.44158 -0.20851,-0.20826 -0.23137,-6.51648 z"
         style="color:#000000;display:inline;overflow:visible;visibility:visible;opacity:0.5;fill:#dfdfdf;fill-opacity:1;fill-rule:nonzero;stroke:none;stroke-width:0;marker:none;enable-background:accumulate" />
      <path
         inkscape:connector-curvature="0"
         id="path3842"
         d="m 211.50496,-135.13426 c -7.1528,0.0973 -12.92324,5.9127 -12.92324,13.08861 0,7.23661 5.86853,13.10514 13.10514,13.10514 0.008,0 0.0164,2e-5 0.0248,0 l -0.20671,-26.19375 z"
         style="color:#000000;display:inline;overflow:visible;visibility:visible;fill:#dfdfdf;fill-opacity:1;fill-rule:nonzero;stroke:none;stroke-width:0;marker:none;enable-background:accumulate" />
      <path
         sodipodi:nodetypes="ccscsscsssssssssscsssssssssssssscccsssssscsccccc"
         inkscape:connector-curvature="0"
         id="path3853"
         d="m 208.72552,-76.997642 c -1.24299,-0.1806 -4.25969,-0.90063 -4.41217,-1.0531 -0.0486,-0.0486 0.45612,-1.72153 1.12147,-3.71774 0.66535,-1.99621 1.20909,-3.7186 1.2083,-3.82753 -7.9e-4,-0.10892 -1.03896,-0.40028 -2.30704,-0.64746 -6.42579,-1.25254 -11.74462,-4.15072 -16.57732,-9.03282 -1.17643,-1.18847 -2.16601,-2.1275 -2.19905,-2.08673 -0.033,0.0408 -0.93205,1.32269 -1.99779,2.84873 -1.06575,1.52604 -2.14938,2.92109 -2.20842,2.87371 -2.79551,-2.24324 -3.44601,-2.9753 -4.91765,-5.47023 -1.58829,-2.6927 -1.76743,-3.808698 -2.88855,-7.257118 -0.0175,-0.054 1.52294,-0.53486 3.38432,-1.0625 3.09034,-0.87603 3.3758,-0.99448 3.28631,-1.3636 -0.0539,-0.22233 -0.45531,-1.42986 -0.89201,-2.68339 -1.13608,-3.26108 -1.62878,-5.90222 -1.75911,-9.42975 -0.12176,-3.29585 0.12104,-6.26229 0.75302,-9.19984 0.22278,-1.03553 0.45227,-2.15118 0.50998,-2.47922 l 0.10494,-0.59644 -3.23874,-0.46389 c -1.78131,-0.25513 -3.27346,-0.49711 -3.31591,-0.53772 -0.1602,-0.1533 1.364,-5.22829 2.47654,-7.51668 0.97094,-1.99715 3.05679,-4.9314 4.44153,-6.24434 0.37389,-0.35449 0.34341,-0.38356 2.37825,1.90625 1.14263,1.28581 2.22518,2.51968 2.40566,2.74195 0.3209,0.3952 0.38864,0.34501 3.0719,-2.27588 1.50907,-1.474 3.72479,-3.41161 4.92382,-4.3058 3.55093,-2.64815 7.90182,-4.62058 11.5444,-5.23351 0.86608,-0.14574 1.43686,-0.3378 1.43686,-0.48349 0,-0.13294 -0.67541,-2.13053 -1.5009,-4.4391 -0.82549,-2.30857 -1.47208,-4.22428 -1.43686,-4.25714 0.11648,-0.10867 2.81935,-0.85628 3.92869,-1.08667 0.59952,-0.12451 2.00417,-0.27934 3.12145,-0.34406 l 2.03142,-0.11767 v 7.85825 7.85826 h -0.86588 c -1.35541,0 -4.20609,0.54733 -6.26886,1.20362 -9.39194,2.98816 -16.18027,10.75586 -18.47486,21.14029 -0.57905,2.62057 -0.62951,8.22702 -0.0968,10.75334 1.56731,7.43249 5.59206,13.19878 12.08079,17.308248 3.16643,2.00537 7.73268,3.78247 11.86571,4.6179 l 1.82155,0.3682 -0.12956,5.74828 c -0.0713,3.16156 -0.12973,6.7516 -0.12993,7.97789 l -2.7e-4,2.2296 -0.54501,-0.0242 c -0.29976,-0.0133 -1.08012,-0.10192 -1.73414,-0.19694 z"
         style="color:#000000;display:inline;overflow:visible;visibility:visible;fill:#dfdfdf;fill-opacity:1;fill-rule:nonzero;stroke:none;stroke-width:0;marker:none;enable-background:accumulate" />
    </g>
    <g
       transform="matrix(0.17015031,0,0,0.1701501,483.92183,110.78772)"
       id="g6188">
      <rect
         style="fill:#dfdfdf;fill-opacity:1;fill-rule:evenodd;stroke:none"
         id="rect4099"
         width="178.01756"
         height="178.01756"
         x="-645.03796"
         y="521.03937"
         rx="0"
         ry="0"
         transform="rotate(-66.405359)" />
      <rect
         style="fill:#dfdfdf;fill-opacity:1"
         id="rect4101"
         width="93.71196"
         height="93.71196"
         x="662.87335"
         y="-501.11325"
         transform="rotate(113.83799)" />
      <rect
         style="fill:#dfdfdf;fill-opacity:1"
         id="rect4103"
         width="126.62231"
         height="130.64206"
         x="-638.28058"
         y="372.5838"
         transform="rotate(-66.170589)" />
      <rect
         style="fill:#dfdfdf;fill-opacity:1"
         id="rect4105"
         width="150.77232"
         height="150.77232"
         x="521.63708"
         y="664.41193"
         transform="rotate(23.688614)" />
    </g>
    <g
       transform="matrix(0.09522957,0,0,0.09063684,818.49982,200.00247)"
       id="g6898">
      <circle
         style="color:#000000;display:inline;overflow:visible;visibility:visible;opacity:1;fill:#dfdfdf;fill-opacity:1;fill-rule:nonzero;stroke:#ffffff;stroke-width:0.96379739;stroke-linejoin:miter;stroke-miterlimit:4;stroke-dasharray:none;stroke-dashoffset:0;stroke-opacity:1;marker:none;enable-background:accumulate"
         id="circle8306"
         cx="524"
         cy="550.36218"
         r="54.066284" />
      <path
         inkscape:connector-curvature="0"
         id="circle8373"
         d="M 513.8418,176.91489 A 373.65318,373.65318 0 0 0 140.18945,550.56724 373.65318,373.65318 0 0 0 513.8418,924.21958 V 741.72544 A 191.87151,191.87151 0 0 1 332.12891,550.36216 191.87151,191.87151 0 0 1 513.8418,358.85044 Z"
         style="color:#000000;display:inline;overflow:visible;visibility:visible;opacity:1;fill:#dfdfdf;fill-opacity:1;fill-rule:nonzero;stroke:none;stroke-width:4.75142097;stroke-linejoin:miter;stroke-miterlimit:4;stroke-dasharray:none;stroke-dashoffset:0;stroke-opacity:1;marker:none;enable-background:accumulate" />
      <path
         inkscape:connector-curvature="0"
         id="path8382"
         d="M 514.76758,394.05161 A 156.0855,156.0855 0 0 0 358.68359,550.13755 156.0855,156.0855 0 0 0 514.76758,706.22154 v -74.27149 a 82.154182,82.154182 0 0 1 -72.92188,-81.58789 82.154182,82.154182 0 0 1 72.92188,-81.5332 z"
         style="color:#000000;display:inline;overflow:visible;visibility:visible;opacity:1;fill:#dfdfdf;fill-opacity:1;fill-rule:nonzero;stroke:none;stroke-width:4.75142097;stroke-linejoin:miter;stroke-miterlimit:4;stroke-dasharray:none;stroke-dashoffset:0;stroke-opacity:1;marker:none;enable-background:accumulate" />
      <path
         inkscape:connector-curvature="0"
         id="path8387"
         d="M 531.56836,230.53013 V 391.40318 A 159.33853,159.33853 0 0 1 683.33789,550.36216 159.33853,159.33853 0 0 1 531.56836,709.43247 V 870.29966 A 319.88508,319.88508 0 0 0 851.45312,550.41489 319.88508,319.88508 0 0 0 531.56836,230.53013 Z"
         style="color:#000000;display:inline;overflow:visible;visibility:visible;opacity:1;fill:#dfdfdf;fill-opacity:1;fill-rule:nonzero;stroke:none;stroke-width:4.75142097;stroke-linejoin:miter;stroke-miterlimit:4;stroke-dasharray:none;stroke-dashoffset:0;stroke-opacity:1;marker:none;enable-background:accumulate" />
    </g>
    <path
       style="fill:#dfdfdf;fill-opacity:1;stroke:#dfdfdf;stroke-width:3.90858006;stroke-linecap:butt;stroke-linejoin:miter;stroke-miterlimit:4;stroke-dasharray:none;stroke-opacity:1"
       d="M 31.75,247.94986 H 137.58333"
       id="path6929"
       inkscape:connector-curvature="0" />
    <path
       style="fill:#dfdfdf;fill-opacity:1;stroke:#dfdfdf;stroke-width:3.90858006;stroke-linecap:butt;stroke-linejoin:miter;stroke-miterlimit:4;stroke-dasharray:none;stroke-opacity:1"
       d="m 920.75,247.94986 h 105.8333"
       id="path6929-7"
       inkscape:connector-curvature="0" />
    <path
       style="fill:#dfdfdf;fill-opacity:1;stroke:#dfdfdf;stroke-width:5.17056465;stroke-linecap:butt;stroke-linejoin:miter;stroke-miterlimit:4;stroke-dasharray:none;stroke-opacity:1"
       d="M 264.58333,247.94986 H 449.79166"
       id="path6929-5"
       inkscape:connector-curvature="0" />
    <path
       style="fill:#dfdfdf;fill-opacity:1;stroke:#dfdfdf;stroke-width:5.17056465;stroke-linecap:butt;stroke-linejoin:miter;stroke-miterlimit:4;stroke-dasharray:none;stroke-opacity:1"
       d="M 595.3125,247.31463 H 780.52083"
       id="path6929-5-3"
       inkscape:connector-curvature="0" />
    <text
       xml:space="preserve"
       style="font-style:normal;font-weight:normal;font-size:25.39999962px;line-height:1.25;font-family:sans-serif;letter-spacing:0px;word-spacing:0px;fill:#000000;fill-opacity:1;stroke:none;stroke-width:0.26458332"
       x="857.40063"
       y="-455.63098"
       id="text6978"><tspan
         sodipodi:role="line"
         id="tspan6976"
         x="857.40063"
         y="-455.63098"
         style="font-size:25.39999962px;fill:#dfdfdf;fill-opacity:1;stroke-width:0.26458332">AOSC@SOSCON</tspan></text>
  </g>
</svg>
